<?xml version="1.0" encoding="iso-8859-1"?>
<!-- Generator: Adobe Illustrator 19.0.0, SVG Export Plug-In . SVG Version: 6.00 Build 0)  -->
<svg version="1.1" id="Capa_1" xmlns="http://www.w3.org/2000/svg" xmlns:xlink="http://www.w3.org/1999/xlink" x="0px" y="0px"
	 viewBox="0 0 512 512" style="enable-background:new 0 0 512 512;" xml:space="preserve">
<circle style="fill:#FFAC00;" cx="256" cy="256" r="256"/>
<path style="fill:#FF7600;" d="M511.932,261.352L348.75,98.17c-23.119-24.523-55.901-39.836-92.263-39.836
	c-66.776,0-121.495,51.625-126.422,117.141c-0.515,6.842-2.004,13.576-4.649,19.907l-21.875,52.363
	c-2.568,6.146-0.852,12.672,3.34,16.874l30.757,30.621v20.445c0,11.063,4.325,21.114,11.374,28.56l80.467,80.493v18.57
	l65.709,65.709C416.255,490.419,509.354,387.004,511.932,261.352z"/>
<path style="fill:#FFFFFF;" d="M103.54,247.745l21.875-52.363c2.645-6.331,4.135-13.065,4.649-19.907
	c4.927-65.516,59.646-117.141,126.422-117.141c70.021,0,126.783,56.763,126.783,126.783c0,0.659-0.015,1.314-0.025,1.971
	c-0.003,1.496-0.046,3-0.138,4.514c-0.001,0.022-0.002,0.044-0.003,0.066c-0.02,0.322-0.022,0.641-0.046,0.963l-0.071,0.885
	c-0.086,1.315-0.189,2.625-0.314,3.928l-25.437,153.652v92.211H229.479v-67.996c0-9.978-8.089-18.067-18.067-18.067h-32.215
	c-22.953,0-41.559-18.607-41.559-41.559v-46.553h-19.853C106.762,269.132,99.292,257.914,103.54,247.745z"/>
<path style="fill:#69FFF7;" d="M383.272,185.119c0,0.663-0.02,1.315-0.031,1.967c0,1.498-0.041,3.006-0.133,4.515
	c0,0.02,0,0.041-0.01,0.071c-0.02,0.316-0.02,0.632-0.041,0.958l-0.071,0.887c-0.082,1.314-0.194,2.629-0.316,3.923l-25.437,153.659
	v92.208H256.252V58.333h0.234C326.508,58.333,383.272,115.097,383.272,185.119z"/>
<circle style="fill:#9DDDFF;" cx="256.49" cy="168.3" r="62.33"/>
<path style="fill:#55CBFF;" d="M318.82,168.303c0-34.426-27.908-62.334-62.334-62.334c-0.079,0-0.156,0.006-0.234,0.006v124.656
	c0.079,0,0.156,0.006,0.234,0.006C290.913,230.637,318.82,202.73,318.82,168.303z"/>
<polygon style="fill:#FFE047;" points="203.941,186.296 200.393,189.844 184.726,239.335 234.217,223.669 237.765,220.12 "/>
<polygon style="fill:#FDC000;" points="237.763,220.119 234.215,223.667 212.17,230.652 212.163,230.645 184.724,239.333 
	220.851,203.207 "/>
<polygon style="fill:#AB2CB7;" points="212.167,230.649 193.412,211.895 184.726,239.335 "/>
<polygon style="fill:#4F0953;" points="212.17,230.652 184.724,239.333 202.788,221.27 "/>
<rect x="230.114" y="118.089" transform="matrix(-0.7071 -0.7071 0.7071 -0.7071 313.4312 469.8837)" style="fill:#AB2CB7;" width="47.835" height="103.879"/>
<rect x="210.541" y="166.521" transform="matrix(-0.7071 0.7071 -0.7071 -0.7071 574.2941 119.0776)" style="fill:#4F0953;" width="103.889" height="23.917"/>
<rect x="244.466" y="118.083" transform="matrix(-0.7071 -0.7071 0.7071 -0.7071 313.4259 469.8709)" style="fill:#FFAC00;" width="19.12" height="103.879"/>
<rect x="205.467" y="168.622" transform="matrix(-0.7071 0.7071 -0.7071 -0.7071 562.0455 114.0041)" style="fill:#FF7600;" width="103.889" height="9.567"/>
<rect x="270.917" y="122.07" transform="matrix(-0.7071 -0.7071 0.7071 -0.7071 411.9386 429.0797)" style="fill:#FFE047;" width="47.835" height="14.31"/>
<rect x="296.136" y="125.716" transform="matrix(-0.7071 0.7071 -0.7071 -0.7071 615.0968 20.5665)" style="fill:#FDC000;" width="14.306" height="23.917"/>
<path style="fill:#FF52A5;" d="M326.651,116.363L307.698,97.41c-4.107-4.107-10.765-4.107-14.871,0l-10.633,10.633l33.824,33.825
	l10.633-10.633C330.758,127.128,330.758,120.469,326.651,116.363z"/>
<path style="fill:#E6045C;" d="M326.651,116.363l-9.478-9.478l-18.068,18.069l5.638,5.638l11.274,11.274l0.008-0.005l0,0
	l10.626-10.626C330.758,127.128,330.758,120.469,326.651,116.363z"/>
<g>
</g>
<g>
</g>
<g>
</g>
<g>
</g>
<g>
</g>
<g>
</g>
<g>
</g>
<g>
</g>
<g>
</g>
<g>
</g>
<g>
</g>
<g>
</g>
<g>
</g>
<g>
</g>
<g>
</g>
</svg>
